<?xml version="1.0" encoding="UTF-8" standalone="no"?>
<!-- Created with Inkscape (http://www.inkscape.org/) -->

<svg
   xmlns:dc="http://purl.org/dc/elements/1.1/"
   xmlns:cc="http://creativecommons.org/ns#"
   xmlns:rdf="http://www.w3.org/1999/02/22-rdf-syntax-ns#"
   xmlns:svg="http://www.w3.org/2000/svg"
   xmlns="http://www.w3.org/2000/svg"
   xmlns:sodipodi="http://sodipodi.sourceforge.net/DTD/sodipodi-0.dtd"
   xmlns:inkscape="http://www.inkscape.org/namespaces/inkscape"
   width="210mm"
   height="297mm"
   viewBox="0 0 744.09448819 1052.3622047"
   id="svg2"
   version="1.1"
   inkscape:version="0.91 r13725"
   sodipodi:docname="logo.svg"
   inkscape:export-filename="/home/mwc/workspace/kimotion/src/images/logo.png"
   inkscape:export-xdpi="23.51"
   inkscape:export-ydpi="23.51">
  <defs
     id="defs4" />
  <sodipodi:namedview
     id="base"
     pagecolor="#ffffff"
     bordercolor="#666666"
     borderopacity="1.0"
     inkscape:pageopacity="0.0"
     inkscape:pageshadow="2"
     inkscape:zoom="0.175"
     inkscape:cx="315.32949"
     inkscape:cy="462.2752"
     inkscape:document-units="px"
     inkscape:current-layer="layer1"
     showgrid="false"
     inkscape:window-width="1600"
     inkscape:window-height="873"
     inkscape:window-x="0"
     inkscape:window-y="27"
     inkscape:window-maximized="1" />
  <metadata
     id="metadata7">
    <rdf:RDF>
      <cc:Work
         rdf:about="">
        <dc:format>image/svg+xml</dc:format>
        <dc:type
           rdf:resource="http://purl.org/dc/dcmitype/StillImage" />
        <dc:title />
      </cc:Work>
    </rdf:RDF>
  </metadata>
  <g
     inkscape:label="Layer 1"
     inkscape:groupmode="layer"
     id="layer1">
    <a
       transform="translate(25.478328,-55.076063)"
       id="a4232-9"
       style="stroke:none;stroke-width:4.80000019;stroke-linecap:butt;stroke-linejoin:miter;stroke-miterlimit:12.69999695;stroke-dasharray:none;stroke-opacity:1" />
    <rect
       style="opacity:1;fill:none;fill-opacity:0.50196078;stroke:#000000;stroke-width:29.51194191;stroke-miterlimit:4;stroke-dasharray:none;stroke-opacity:1"
       id="rect4143-3"
       width="481.1694"
       height="353.49905"
       x="141.70094"
       y="310.05252" />
    <path
       style="fill:#000000;stroke:#ffffff;stroke-width:3.70000005;stroke-miterlimit:4;stroke-dasharray:none;stroke-opacity:1"
       d="m 472.87692,332.43657 c -13.17127,1.18099 -21.23012,13.79893 -26.15039,24.80274 -3.14012,9.61224 -13.77418,12.21221 -21.09484,17.9827 -11.01142,6.87409 -25.56676,20.34132 -35.6134,26.09762 -1.46435,0.83901 -2.87053,-2.27639 -5.82694,-0.0674 -7.41666,5.5417 -13.54891,5.97076 -22.7935,10.86985 -4.04204,1.94089 -16.76369,11.68186 -19.60296,8.89118 -1.92093,-3.12182 3.03976,-10.01134 1.6582,-15.53654 5.01141,3.78969 -0.38476,-15.12221 -0.38476,-15.12221 2.91838,2.37883 18.22086,22.75471 15.68805,19.98744 -0.80182,-1.09702 -8.74623,-26.20853 -10.36774,-28.3351 -4.97716,-11.40826 -15.55196,-20.17841 -27.54102,-23.28711 -15.53256,-3.21118 -32.70708,0.35191 -45.55859,9.65625 -11.47102,11.12247 -14.30371,28.25384 -12.77344,43.56445 0.62356,5.73864 -2.32044,11.27032 -1.5664,16.81836 1.41342,3.15075 5.11318,-1.03836 5.02343,-0.95312 0.19079,5.11123 -6.75433,3.33172 -9.7477,6.0433 -5.0158,3.32104 -11.14781,5.47919 -16.77691,6.94811 -14.29658,5.69881 -32.86044,11.59586 -43.18046,14.53203 -6.57666,1.27312 -5.34422,4.56014 -5.57125,4.58602 -14.33604,2.13533 -35.0144,5.47194 -49.18461,9.67374 -17.67619,4.40836 -35.77752,11.90988 -53.660165,4.61719 -9.485281,-2.54012 -20.386155,4.8592 -22.449219,14.24805 -0.660359,6.76614 7.842714,8.10774 12.847657,6.93945 3.406108,0.0135 8.816335,-0.62869 11.078124,0.83594 -3.510527,2.19057 -10.867706,2.09728 -10.27539,8.0664 0.980981,5.55175 8.089874,3.80338 11.736328,2.26367 9.861455,-2.54623 18.799895,-7.53239 27.480475,-12.36523 23.50672,-7.22692 48.96844,-2.10394 72.85298,-8.30706 17.20414,-3.39022 34.62062,-8.59062 52.19975,-7.76716 9.61985,1.08721 15.71097,9.72291 17.64287,18.59947 0.82239,18.85746 8.88193,18.65998 7.55224,27.55893 0.54824,9.44946 6.86163,16.45859 0.97091,25.97246 -6.20561,13.75448 -20.97361,19.32061 -32.99448,26.6489 -6.9225,5.80738 -15.35344,8.72992 -23.67935,11.73001 -11.25478,4.81286 -21.12607,12.16662 -30.48047,19.89453 -11.18165,7.21377 -25.0554,3.54551 -37.17907,7.73104 -15.08616,4.04162 -30.05333,9.19586 -44.7975,13.94474 -4.665403,3.94112 0.50985,9.84939 4.09268,12.4226 5.77501,5.62162 14.85102,9.20049 17.48155,17.24927 -2.62678,6.25571 -11.71896,4.60007 -17.06055,3.01368 -9.030623,-2.36892 -17.265521,-8.20313 -26.640629,-9.41407 -10.106052,0.10791 -15.711263,13.34584 -10.02539,21.31055 7.733761,12.3727 18.275482,22.71841 27.507816,33.95898 4.08123,4.81934 11.117653,11.15853 17.652343,6.74024 47.95774,-34.34406 96.08563,-69.94269 151.07745,-92.21981 33.70665,-13.87624 70.9556,-17.85822 106.98177,-12.99354 51.11286,6.74235 101.27602,19.65304 152.3275,27.08249 11.2549,0.93449 22.65465,5.32397 33.95117,2.9375 8.95786,-2.74651 8.67371,-14.10666 8.86914,-21.71484 -0.40044,-20.45119 9.37215,-40.24648 6.75196,-60.91797 -0.94975,-8.54621 -9.9724,-17.66196 -18.88477,-13.36328 -8.37056,4.15659 -9.13925,15.14933 -13.30719,22.48251 -33.96257,49.16425 -16.15944,22.20748 -12.81781,-7.71298 -0.43585,-5.65156 -7.69821,-3.70665 -11.45508,-3.70313 -21.75064,1.59318 -42.42794,9.4422 -63.41992,14.20117 -10.17335,1.78313 -17.98011,-6.94 -27.80469,-7.95898 -12.03531,-2.51589 -24.4982,-1.99048 -36.16211,-6.47656 -7.70967,-2.90102 -16.65937,-4.70546 -23.05664,-10.15039 -3.71966,-10.82177 -0.88925,-23.291 -6.61718,-33.76758 -1.90382,-4.51836 2.32442,-9.1729 1.80859,-13.96094 0.55385,-9.85229 -4.77363,-19.68687 -0.44336,-29.33008 3.88937,-9.66809 9.43654,-19.21023 17.22461,-26.21093 13.08476,-9.47251 24.97084,-20.46609 36.2793,-32.01368 15.00682,-14.62375 31.72567,-28.53222 52.52148,-33.72265 6.19151,-3.01562 12.78811,-4.61646 19.58594,-5.40039 5.05243,-1.52125 3.52396,-8.71816 -1.10352,-9.6836 -3.69352,-1.41011 -7.75514,-0.21314 -11.43359,0.0508 -0.53169,-7.66661 10.44533,-9.00205 10.86914,-16.61914 1.23135,-6.96334 -5.69917,-12.41331 -12.23047,-11.87891 z"
       id="path4474"
       inkscape:connector-curvature="0"
       sodipodi:nodetypes="cccsscccccccccccccccccccccccccccccccccccccccccccccccccccccccccccccccccc" />
  </g>
</svg>
